<mxfile host="app.diagrams.net" agent="Mozilla/5.0 (Windows NT 10.0; Win64; x64) AppleWebKit/537.36 (KHTML, like Gecko) Chrome/136.0.0.0 Safari/537.36" version="27.0.2">
  <diagram name="Page-1" id="DJe6TIGwghdVP-CnH3Ke">
    <mxGraphModel dx="6377" dy="1777" grid="0" gridSize="10" guides="1" tooltips="1" connect="1" arrows="1" fold="1" page="1" pageScale="1" pageWidth="850" pageHeight="1100" math="0" shadow="0">
      <root>
        <mxCell id="0" />
        <mxCell id="1" parent="0" />
        <mxCell id="BB0dW1mJOba3t8yH9grJ-174" value="" style="rounded=0;whiteSpace=wrap;html=1;dashed=1;strokeWidth=5;" vertex="1" parent="1">
          <mxGeometry x="-2320.5" y="2680" width="1920.5" height="580" as="geometry" />
        </mxCell>
        <mxCell id="BB0dW1mJOba3t8yH9grJ-25" value="" style="rounded=0;whiteSpace=wrap;html=1;strokeWidth=3;fillColor=#f5f5f5;strokeColor=#666666;fontColor=#333333;container=0;" vertex="1" parent="1">
          <mxGeometry x="-536" y="202" width="930" height="640" as="geometry" />
        </mxCell>
        <mxCell id="BB0dW1mJOba3t8yH9grJ-31" style="rounded=0;orthogonalLoop=1;jettySize=auto;html=1;entryX=-0.003;entryY=0.217;entryDx=0;entryDy=0;entryPerimeter=0;strokeWidth=3;endArrow=none;startFill=0;" edge="1" parent="1" target="BB0dW1mJOba3t8yH9grJ-17">
          <mxGeometry relative="1" as="geometry">
            <mxPoint x="-296" y="317" as="sourcePoint" />
            <mxPoint x="-131" y="272" as="targetPoint" />
          </mxGeometry>
        </mxCell>
        <mxCell id="BB0dW1mJOba3t8yH9grJ-1" value="&lt;font style=&quot;font-size: 10px;&quot;&gt;&lt;b&gt;DFFX1_RVT&lt;/b&gt;&lt;/font&gt;" style="rounded=0;whiteSpace=wrap;html=1;strokeWidth=3;fontSize=20;fillColor=#d5e8d4;strokeColor=#82b366;container=0;" vertex="1" parent="1">
          <mxGeometry x="-416" y="282" width="120" height="160" as="geometry" />
        </mxCell>
        <mxCell id="BB0dW1mJOba3t8yH9grJ-6" value="D" style="text;html=1;align=center;verticalAlign=middle;resizable=0;points=[];autosize=1;strokeColor=none;fillColor=none;strokeWidth=3;fontSize=20;container=0;" vertex="1" parent="1">
          <mxGeometry x="-416" y="297" width="40" height="40" as="geometry" />
        </mxCell>
        <mxCell id="BB0dW1mJOba3t8yH9grJ-7" value="CLK" style="text;html=1;align=center;verticalAlign=middle;resizable=0;points=[];autosize=1;strokeColor=none;fillColor=none;strokeWidth=3;fontSize=20;container=0;" vertex="1" parent="1">
          <mxGeometry x="-416" y="385" width="60" height="40" as="geometry" />
        </mxCell>
        <mxCell id="BB0dW1mJOba3t8yH9grJ-8" value="Q" style="text;html=1;align=center;verticalAlign=middle;resizable=0;points=[];autosize=1;strokeColor=none;fillColor=none;strokeWidth=3;fontSize=20;container=0;" vertex="1" parent="1">
          <mxGeometry x="-331" y="297" width="40" height="40" as="geometry" />
        </mxCell>
        <mxCell id="BB0dW1mJOba3t8yH9grJ-9" value="&lt;font style=&quot;font-size: 10px;&quot;&gt;&lt;b&gt;DFFX1_RVT&lt;/b&gt;&lt;/font&gt;" style="rounded=0;whiteSpace=wrap;html=1;strokeWidth=3;fontSize=20;fillColor=#d5e8d4;strokeColor=#82b366;container=0;" vertex="1" parent="1">
          <mxGeometry x="-416" y="522" width="120" height="160" as="geometry" />
        </mxCell>
        <mxCell id="BB0dW1mJOba3t8yH9grJ-10" value="D" style="text;html=1;align=center;verticalAlign=middle;resizable=0;points=[];autosize=1;strokeColor=none;fillColor=none;strokeWidth=3;fontSize=20;container=0;" vertex="1" parent="1">
          <mxGeometry x="-416" y="537" width="40" height="40" as="geometry" />
        </mxCell>
        <mxCell id="BB0dW1mJOba3t8yH9grJ-11" value="CLK" style="text;html=1;align=center;verticalAlign=middle;resizable=0;points=[];autosize=1;strokeColor=none;fillColor=none;strokeWidth=3;fontSize=20;container=0;" vertex="1" parent="1">
          <mxGeometry x="-416" y="625" width="60" height="40" as="geometry" />
        </mxCell>
        <mxCell id="BB0dW1mJOba3t8yH9grJ-12" value="Q" style="text;html=1;align=center;verticalAlign=middle;resizable=0;points=[];autosize=1;strokeColor=none;fillColor=none;strokeWidth=3;fontSize=20;container=0;" vertex="1" parent="1">
          <mxGeometry x="-331" y="537" width="40" height="40" as="geometry" />
        </mxCell>
        <mxCell id="BB0dW1mJOba3t8yH9grJ-13" value="&lt;font style=&quot;font-size: 10px;&quot;&gt;&lt;b&gt;DFFX1_RVT&lt;/b&gt;&lt;/font&gt;" style="rounded=0;whiteSpace=wrap;html=1;strokeWidth=3;fontSize=20;fillColor=#d5e8d4;strokeColor=#82b366;container=0;" vertex="1" parent="1">
          <mxGeometry x="149" y="402" width="120" height="160" as="geometry" />
        </mxCell>
        <mxCell id="BB0dW1mJOba3t8yH9grJ-14" value="D" style="text;html=1;align=center;verticalAlign=middle;resizable=0;points=[];autosize=1;strokeColor=none;fillColor=none;strokeWidth=3;fontSize=20;container=0;" vertex="1" parent="1">
          <mxGeometry x="144" y="417" width="40" height="40" as="geometry" />
        </mxCell>
        <mxCell id="BB0dW1mJOba3t8yH9grJ-15" value="CLK" style="text;html=1;align=center;verticalAlign=middle;resizable=0;points=[];autosize=1;strokeColor=none;fillColor=none;strokeWidth=3;fontSize=20;container=0;" vertex="1" parent="1">
          <mxGeometry x="144" y="505" width="60" height="40" as="geometry" />
        </mxCell>
        <mxCell id="BB0dW1mJOba3t8yH9grJ-37" style="edgeStyle=orthogonalEdgeStyle;rounded=0;orthogonalLoop=1;jettySize=auto;html=1;strokeWidth=3;endArrow=none;startFill=0;" edge="1" parent="1" source="BB0dW1mJOba3t8yH9grJ-16">
          <mxGeometry relative="1" as="geometry">
            <mxPoint x="394" y="437" as="targetPoint" />
          </mxGeometry>
        </mxCell>
        <mxCell id="BB0dW1mJOba3t8yH9grJ-16" value="Q" style="text;html=1;align=center;verticalAlign=middle;resizable=0;points=[];autosize=1;strokeColor=none;fillColor=none;strokeWidth=3;fontSize=20;container=0;" vertex="1" parent="1">
          <mxGeometry x="229" y="417" width="40" height="40" as="geometry" />
        </mxCell>
        <mxCell id="BB0dW1mJOba3t8yH9grJ-17" value="&lt;font style=&quot;font-size: 10px;&quot;&gt;&lt;b&gt;AND2X1_RVT&lt;/b&gt;&lt;/font&gt;" style="rounded=0;whiteSpace=wrap;html=1;strokeWidth=3;fontSize=20;fillColor=#fff2cc;strokeColor=#d6b656;container=0;" vertex="1" parent="1">
          <mxGeometry x="-131" y="282" width="120" height="160" as="geometry" />
        </mxCell>
        <mxCell id="BB0dW1mJOba3t8yH9grJ-18" value="A1" style="text;html=1;align=center;verticalAlign=middle;resizable=0;points=[];autosize=1;strokeColor=none;fillColor=none;strokeWidth=3;fontSize=20;container=0;" vertex="1" parent="1">
          <mxGeometry x="-131" y="297" width="50" height="40" as="geometry" />
        </mxCell>
        <mxCell id="BB0dW1mJOba3t8yH9grJ-19" value="A2" style="text;html=1;align=center;verticalAlign=middle;resizable=0;points=[];autosize=1;strokeColor=none;fillColor=none;strokeWidth=3;fontSize=20;container=0;" vertex="1" parent="1">
          <mxGeometry x="-131" y="385" width="50" height="40" as="geometry" />
        </mxCell>
        <mxCell id="BB0dW1mJOba3t8yH9grJ-20" value="Y" style="text;html=1;align=center;verticalAlign=middle;resizable=0;points=[];autosize=1;strokeColor=none;fillColor=none;strokeWidth=3;fontSize=20;container=0;" vertex="1" parent="1">
          <mxGeometry x="-46" y="342" width="40" height="40" as="geometry" />
        </mxCell>
        <mxCell id="BB0dW1mJOba3t8yH9grJ-21" value="&lt;span style=&quot;font-size: 10px;&quot;&gt;&lt;b&gt;TNBUFFX1_RVT&lt;/b&gt;&lt;/span&gt;" style="rounded=0;whiteSpace=wrap;html=1;strokeWidth=3;fontSize=20;fillColor=#ffe6cc;strokeColor=#d79b00;container=0;" vertex="1" parent="1">
          <mxGeometry x="-131" y="522" width="120" height="160" as="geometry" />
        </mxCell>
        <mxCell id="BB0dW1mJOba3t8yH9grJ-22" value="A" style="text;html=1;align=center;verticalAlign=middle;resizable=0;points=[];autosize=1;strokeColor=none;fillColor=none;strokeWidth=3;fontSize=20;container=0;" vertex="1" parent="1">
          <mxGeometry x="-136" y="537" width="40" height="40" as="geometry" />
        </mxCell>
        <mxCell id="BB0dW1mJOba3t8yH9grJ-24" value="Y" style="text;html=1;align=center;verticalAlign=middle;resizable=0;points=[];autosize=1;strokeColor=none;fillColor=none;strokeWidth=3;fontSize=20;container=0;" vertex="1" parent="1">
          <mxGeometry x="-51" y="537" width="40" height="40" as="geometry" />
        </mxCell>
        <mxCell id="BB0dW1mJOba3t8yH9grJ-26" value="" style="endArrow=none;html=1;rounded=0;exitX=0;exitY=0.266;exitDx=0;exitDy=0;exitPerimeter=0;strokeWidth=3;" edge="1" parent="1">
          <mxGeometry width="50" height="50" relative="1" as="geometry">
            <mxPoint x="-536" y="317.6" as="sourcePoint" />
            <mxPoint x="-416" y="318" as="targetPoint" />
          </mxGeometry>
        </mxCell>
        <mxCell id="BB0dW1mJOba3t8yH9grJ-27" value="" style="endArrow=none;html=1;rounded=0;exitX=0;exitY=0.266;exitDx=0;exitDy=0;exitPerimeter=0;strokeWidth=3;" edge="1" parent="1">
          <mxGeometry width="50" height="50" relative="1" as="geometry">
            <mxPoint x="-536" y="404.76" as="sourcePoint" />
            <mxPoint x="-416" y="405.15999999999997" as="targetPoint" />
          </mxGeometry>
        </mxCell>
        <mxCell id="BB0dW1mJOba3t8yH9grJ-28" value="" style="endArrow=none;html=1;rounded=0;exitX=0;exitY=0.266;exitDx=0;exitDy=0;exitPerimeter=0;strokeWidth=3;" edge="1" parent="1">
          <mxGeometry width="50" height="50" relative="1" as="geometry">
            <mxPoint x="-536" y="558" as="sourcePoint" />
            <mxPoint x="-416" y="558.4" as="targetPoint" />
          </mxGeometry>
        </mxCell>
        <mxCell id="BB0dW1mJOba3t8yH9grJ-29" value="" style="endArrow=none;html=1;rounded=0;exitX=0;exitY=0.266;exitDx=0;exitDy=0;exitPerimeter=0;strokeWidth=3;" edge="1" parent="1">
          <mxGeometry width="50" height="50" relative="1" as="geometry">
            <mxPoint x="-536" y="645.16" as="sourcePoint" />
            <mxPoint x="-416" y="645.56" as="targetPoint" />
          </mxGeometry>
        </mxCell>
        <mxCell id="BB0dW1mJOba3t8yH9grJ-32" style="rounded=0;orthogonalLoop=1;jettySize=auto;html=1;entryX=-0.003;entryY=0.217;entryDx=0;entryDy=0;entryPerimeter=0;strokeWidth=3;endArrow=none;startFill=0;" edge="1" parent="1">
          <mxGeometry relative="1" as="geometry">
            <mxPoint x="-296" y="556.58" as="sourcePoint" />
            <mxPoint x="-131" y="556.58" as="targetPoint" />
          </mxGeometry>
        </mxCell>
        <mxCell id="BB0dW1mJOba3t8yH9grJ-33" style="edgeStyle=orthogonalEdgeStyle;rounded=0;orthogonalLoop=1;jettySize=auto;html=1;entryX=0.11;entryY=0.495;entryDx=0;entryDy=0;entryPerimeter=0;strokeWidth=3;endArrow=none;startFill=0;" edge="1" parent="1" source="BB0dW1mJOba3t8yH9grJ-17" target="BB0dW1mJOba3t8yH9grJ-14">
          <mxGeometry relative="1" as="geometry" />
        </mxCell>
        <mxCell id="BB0dW1mJOba3t8yH9grJ-34" style="edgeStyle=orthogonalEdgeStyle;rounded=0;orthogonalLoop=1;jettySize=auto;html=1;entryX=0.004;entryY=0.575;entryDx=0;entryDy=0;entryPerimeter=0;strokeWidth=3;endArrow=none;startFill=0;" edge="1" parent="1" source="BB0dW1mJOba3t8yH9grJ-24" target="BB0dW1mJOba3t8yH9grJ-19">
          <mxGeometry relative="1" as="geometry">
            <Array as="points">
              <mxPoint x="24" y="557" />
              <mxPoint x="24" y="472" />
              <mxPoint x="-151" y="472" />
              <mxPoint x="-151" y="408" />
            </Array>
          </mxGeometry>
        </mxCell>
        <mxCell id="BB0dW1mJOba3t8yH9grJ-36" value="" style="endArrow=classic;html=1;rounded=0;entryX=0.073;entryY=0.535;entryDx=0;entryDy=0;entryPerimeter=0;edgeStyle=orthogonalEdgeStyle;strokeWidth=3;endFill=1;" edge="1" parent="1" target="BB0dW1mJOba3t8yH9grJ-15">
          <mxGeometry width="50" height="50" relative="1" as="geometry">
            <mxPoint x="-536" y="802" as="sourcePoint" />
            <mxPoint x="-486" y="752" as="targetPoint" />
            <Array as="points">
              <mxPoint x="-536" y="803" />
              <mxPoint x="84" y="803" />
              <mxPoint x="84" y="526" />
            </Array>
          </mxGeometry>
        </mxCell>
        <mxCell id="BB0dW1mJOba3t8yH9grJ-38" value="in1" style="text;html=1;align=center;verticalAlign=middle;resizable=0;points=[];autosize=1;strokeColor=none;fillColor=none;strokeWidth=3;fontSize=20;fontStyle=1;container=0;" vertex="1" parent="1">
          <mxGeometry x="-583" y="299" width="45" height="36" as="geometry" />
        </mxCell>
        <mxCell id="BB0dW1mJOba3t8yH9grJ-39" value="clk1" style="text;html=1;align=center;verticalAlign=middle;resizable=0;points=[];autosize=1;strokeColor=none;fillColor=none;strokeWidth=3;fontSize=20;fontStyle=1;container=0;" vertex="1" parent="1">
          <mxGeometry x="-593" y="387" width="54" height="36" as="geometry" />
        </mxCell>
        <mxCell id="BB0dW1mJOba3t8yH9grJ-40" value="in2" style="text;html=1;align=center;verticalAlign=middle;resizable=0;points=[];autosize=1;strokeColor=none;fillColor=none;strokeWidth=3;fontSize=20;fontStyle=1;container=0;" vertex="1" parent="1">
          <mxGeometry x="-583" y="539" width="45" height="36" as="geometry" />
        </mxCell>
        <mxCell id="BB0dW1mJOba3t8yH9grJ-41" value="clk2" style="text;html=1;align=center;verticalAlign=middle;resizable=0;points=[];autosize=1;strokeColor=none;fillColor=none;strokeWidth=3;fontSize=20;fontStyle=1;container=0;" vertex="1" parent="1">
          <mxGeometry x="-593" y="627" width="54" height="36" as="geometry" />
        </mxCell>
        <mxCell id="BB0dW1mJOba3t8yH9grJ-42" value="clk3" style="text;html=1;align=center;verticalAlign=middle;resizable=0;points=[];autosize=1;strokeColor=none;fillColor=none;strokeWidth=3;fontSize=20;fontStyle=1;container=0;" vertex="1" parent="1">
          <mxGeometry x="-593" y="784" width="54" height="36" as="geometry" />
        </mxCell>
        <mxCell id="BB0dW1mJOba3t8yH9grJ-43" value="r1" style="text;html=1;align=center;verticalAlign=middle;resizable=0;points=[];autosize=1;strokeColor=none;fillColor=none;strokeWidth=3;fontSize=20;container=0;" vertex="1" parent="1">
          <mxGeometry x="-376" y="242" width="40" height="40" as="geometry" />
        </mxCell>
        <mxCell id="BB0dW1mJOba3t8yH9grJ-44" value="r2" style="text;html=1;align=center;verticalAlign=middle;resizable=0;points=[];autosize=1;strokeColor=none;fillColor=none;strokeWidth=3;fontSize=20;container=0;" vertex="1" parent="1">
          <mxGeometry x="-376" y="482" width="40" height="40" as="geometry" />
        </mxCell>
        <mxCell id="BB0dW1mJOba3t8yH9grJ-45" value="u2" style="text;html=1;align=center;verticalAlign=middle;resizable=0;points=[];autosize=1;strokeColor=none;fillColor=none;strokeWidth=3;fontSize=20;container=0;" vertex="1" parent="1">
          <mxGeometry x="-96" y="242" width="50" height="40" as="geometry" />
        </mxCell>
        <mxCell id="BB0dW1mJOba3t8yH9grJ-46" value="u1" style="text;html=1;align=center;verticalAlign=middle;resizable=0;points=[];autosize=1;strokeColor=none;fillColor=none;strokeWidth=3;fontSize=20;container=0;" vertex="1" parent="1">
          <mxGeometry x="-96" y="482" width="50" height="40" as="geometry" />
        </mxCell>
        <mxCell id="BB0dW1mJOba3t8yH9grJ-47" value="r3" style="text;html=1;align=center;verticalAlign=middle;resizable=0;points=[];autosize=1;strokeColor=none;fillColor=none;strokeWidth=3;fontSize=20;container=0;" vertex="1" parent="1">
          <mxGeometry x="189" y="362" width="40" height="40" as="geometry" />
        </mxCell>
        <mxCell id="BB0dW1mJOba3t8yH9grJ-49" value="&lt;font style=&quot;font-size: 30px;&quot;&gt;&lt;b&gt;Nets =&lt;/b&gt; 10&lt;/font&gt;&lt;div&gt;&lt;font style=&quot;font-size: 30px;&quot;&gt;&lt;b&gt;Instances =&lt;/b&gt; 5&lt;/font&gt;&lt;/div&gt;&lt;div&gt;&lt;font style=&quot;font-size: 30px;&quot;&gt;&lt;b&gt;Module =&lt;/b&gt; 1&lt;/font&gt;&lt;/div&gt;&lt;div&gt;&lt;br&gt;&lt;/div&gt;" style="text;html=1;align=left;verticalAlign=middle;resizable=0;points=[];autosize=1;strokeColor=none;fillColor=none;strokeWidth=3;fontSize=20;container=0;" vertex="1" parent="1">
          <mxGeometry x="-111" y="887" width="207" height="144" as="geometry" />
        </mxCell>
        <mxCell id="BB0dW1mJOba3t8yH9grJ-50" value="module" style="text;html=1;align=center;verticalAlign=middle;resizable=0;points=[];autosize=1;strokeColor=none;fillColor=none;strokeWidth=3;fontSize=50;container=0;" vertex="1" parent="1">
          <mxGeometry x="-176" y="132" width="190" height="70" as="geometry" />
        </mxCell>
        <mxCell id="BB0dW1mJOba3t8yH9grJ-51" value="out" style="text;html=1;align=center;verticalAlign=middle;resizable=0;points=[];autosize=1;strokeColor=none;fillColor=none;strokeWidth=3;fontSize=20;fontStyle=1;container=0;" vertex="1" parent="1">
          <mxGeometry x="401" y="419" width="46" height="36" as="geometry" />
        </mxCell>
        <mxCell id="BB0dW1mJOba3t8yH9grJ-54" value="&lt;div style=&quot;forced-color-adjust: none; color: rgb(0, 0, 0); font-family: Helvetica; font-size: 20px; font-style: normal; font-variant-ligatures: normal; font-variant-caps: normal; letter-spacing: normal; orphans: 2; text-align: left; text-indent: 0px; text-transform: none; widows: 2; word-spacing: 0px; -webkit-text-stroke-width: 0px; white-space: nowrap; background-color: rgb(236, 236, 236); text-decoration-thickness: initial; text-decoration-style: initial; text-decoration-color: initial;&quot;&gt;&lt;font style=&quot;forced-color-adjust: none; font-size: 30px;&quot;&gt;&lt;b&gt;References =&amp;nbsp;&lt;/b&gt;&lt;/font&gt;&lt;/div&gt;&lt;div style=&quot;forced-color-adjust: none; color: rgb(0, 0, 0); font-family: Helvetica; font-size: 20px; font-style: normal; font-variant-ligatures: normal; font-variant-caps: normal; font-weight: 400; letter-spacing: normal; orphans: 2; text-align: left; text-indent: 0px; text-transform: none; widows: 2; word-spacing: 0px; -webkit-text-stroke-width: 0px; white-space: nowrap; background-color: rgb(236, 236, 236); text-decoration-thickness: initial; text-decoration-style: initial; text-decoration-color: initial;&quot;&gt;&lt;span style=&quot;background-color: light-dark(rgb(236, 236, 236), rgb(34, 34, 34)); color: light-dark(rgb(0, 0, 0), rgb(237, 237, 237)); font-size: 30px; text-align: center; text-wrap-mode: wrap;&quot;&gt;DFFX1_RVT&lt;/span&gt;&lt;br&gt;&lt;span style=&quot;background-color: light-dark(rgb(236, 236, 236), rgb(34, 34, 34)); color: light-dark(rgb(0, 0, 0), rgb(237, 237, 237)); font-size: 30px; text-align: center; text-wrap-mode: wrap;&quot;&gt;AND2X1_RVT&lt;/span&gt;&lt;br&gt;&lt;span style=&quot;background-color: light-dark(rgb(236, 236, 236), rgb(34, 34, 34)); color: light-dark(rgb(0, 0, 0), rgb(237, 237, 237)); font-size: 30px; text-align: center; text-wrap-mode: wrap;&quot;&gt;TNBUFFX1_RVT&lt;/span&gt;&lt;/div&gt;" style="text;whiteSpace=wrap;html=1;" vertex="1" parent="1">
          <mxGeometry x="597.9992307692305" y="391.9999812199519" width="304" height="206" as="geometry" />
        </mxCell>
        <mxCell id="BB0dW1mJOba3t8yH9grJ-55" value="&lt;div style=&quot;forced-color-adjust: none; color: rgb(0, 0, 0); font-family: Helvetica; font-size: 20px; font-style: normal; font-variant-ligatures: normal; font-variant-caps: normal; letter-spacing: normal; orphans: 2; text-align: left; text-indent: 0px; text-transform: none; widows: 2; word-spacing: 0px; -webkit-text-stroke-width: 0px; white-space: nowrap; background-color: rgb(236, 236, 236); text-decoration-thickness: initial; text-decoration-style: initial; text-decoration-color: initial;&quot;&gt;&lt;font style=&quot;forced-color-adjust: none; font-size: 30px;&quot;&gt;&lt;b&gt;Instances =&amp;nbsp;&lt;/b&gt;&lt;/font&gt;&lt;/div&gt;&lt;div style=&quot;text-align: center; forced-color-adjust: none; color: rgb(0, 0, 0); font-family: Helvetica; font-style: normal; font-variant-ligatures: normal; font-variant-caps: normal; font-weight: 400; letter-spacing: normal; orphans: 2; text-indent: 0px; text-transform: none; widows: 2; word-spacing: 0px; -webkit-text-stroke-width: 0px; white-space-collapse: collapse; background-color: rgb(236, 236, 236); text-decoration-thickness: initial; text-decoration-style: initial; text-decoration-color: initial;&quot;&gt;&lt;span style=&quot;font-size: 30px;&quot;&gt;r1&lt;/span&gt;&lt;/div&gt;&lt;div style=&quot;text-align: center; forced-color-adjust: none; color: rgb(0, 0, 0); font-family: Helvetica; font-style: normal; font-variant-ligatures: normal; font-variant-caps: normal; font-weight: 400; letter-spacing: normal; orphans: 2; text-indent: 0px; text-transform: none; widows: 2; word-spacing: 0px; -webkit-text-stroke-width: 0px; white-space-collapse: collapse; background-color: rgb(236, 236, 236); text-decoration-thickness: initial; text-decoration-style: initial; text-decoration-color: initial;&quot;&gt;&lt;span style=&quot;font-size: 30px;&quot;&gt;r2&lt;/span&gt;&lt;/div&gt;&lt;div style=&quot;text-align: center; forced-color-adjust: none; color: rgb(0, 0, 0); font-family: Helvetica; font-style: normal; font-variant-ligatures: normal; font-variant-caps: normal; font-weight: 400; letter-spacing: normal; orphans: 2; text-indent: 0px; text-transform: none; widows: 2; word-spacing: 0px; -webkit-text-stroke-width: 0px; white-space-collapse: collapse; background-color: rgb(236, 236, 236); text-decoration-thickness: initial; text-decoration-style: initial; text-decoration-color: initial;&quot;&gt;&lt;span style=&quot;font-size: 30px;&quot;&gt;r3&lt;/span&gt;&lt;/div&gt;&lt;div style=&quot;text-align: center; forced-color-adjust: none; color: rgb(0, 0, 0); font-family: Helvetica; font-style: normal; font-variant-ligatures: normal; font-variant-caps: normal; font-weight: 400; letter-spacing: normal; orphans: 2; text-indent: 0px; text-transform: none; widows: 2; word-spacing: 0px; -webkit-text-stroke-width: 0px; white-space-collapse: collapse; background-color: rgb(236, 236, 236); text-decoration-thickness: initial; text-decoration-style: initial; text-decoration-color: initial;&quot;&gt;&lt;span style=&quot;font-size: 30px;&quot;&gt;u1&lt;/span&gt;&lt;/div&gt;&lt;div style=&quot;text-align: center; forced-color-adjust: none; color: rgb(0, 0, 0); font-family: Helvetica; font-style: normal; font-variant-ligatures: normal; font-variant-caps: normal; font-weight: 400; letter-spacing: normal; orphans: 2; text-indent: 0px; text-transform: none; widows: 2; word-spacing: 0px; -webkit-text-stroke-width: 0px; white-space-collapse: collapse; background-color: rgb(236, 236, 236); text-decoration-thickness: initial; text-decoration-style: initial; text-decoration-color: initial;&quot;&gt;&lt;span style=&quot;font-size: 30px;&quot;&gt;u2&lt;/span&gt;&lt;/div&gt;" style="text;whiteSpace=wrap;html=1;" vertex="1" parent="1">
          <mxGeometry x="607.9992307692305" y="586.9999812199519" width="304" height="206" as="geometry" />
        </mxCell>
        <mxCell id="BB0dW1mJOba3t8yH9grJ-57" value="FF1" style="rounded=0;whiteSpace=wrap;html=1;strokeWidth=3;fontSize=20;fillColor=#d5e8d4;strokeColor=#82b366;container=0;" vertex="1" parent="1">
          <mxGeometry x="-1699" y="1770" width="120" height="160" as="geometry" />
        </mxCell>
        <mxCell id="BB0dW1mJOba3t8yH9grJ-58" value="" style="endArrow=none;html=1;rounded=0;exitX=0;exitY=0.266;exitDx=0;exitDy=0;exitPerimeter=0;strokeWidth=3;" edge="1" parent="1">
          <mxGeometry width="50" height="50" relative="1" as="geometry">
            <mxPoint x="-1819" y="1805.6" as="sourcePoint" />
            <mxPoint x="-1699" y="1806" as="targetPoint" />
          </mxGeometry>
        </mxCell>
        <mxCell id="BB0dW1mJOba3t8yH9grJ-60" value="in1" style="text;html=1;align=center;verticalAlign=middle;resizable=0;points=[];autosize=1;strokeColor=none;fillColor=none;strokeWidth=3;fontSize=20;fontStyle=1;container=0;" vertex="1" parent="1">
          <mxGeometry x="-1866" y="1787" width="45" height="36" as="geometry" />
        </mxCell>
        <mxCell id="BB0dW1mJOba3t8yH9grJ-61" value="clk" style="text;html=1;align=center;verticalAlign=middle;resizable=0;points=[];autosize=1;strokeColor=none;fillColor=none;strokeWidth=4;fontSize=20;fontStyle=1;container=0;" vertex="1" parent="1">
          <mxGeometry x="-1873" y="1872" width="50" height="40" as="geometry" />
        </mxCell>
        <mxCell id="BB0dW1mJOba3t8yH9grJ-62" value="D1" style="text;html=1;align=center;verticalAlign=middle;resizable=0;points=[];autosize=1;strokeColor=none;fillColor=none;strokeWidth=3;fontSize=20;container=0;" vertex="1" parent="1">
          <mxGeometry x="-1704" y="1786" width="50" height="40" as="geometry" />
        </mxCell>
        <mxCell id="BB0dW1mJOba3t8yH9grJ-86" style="edgeStyle=orthogonalEdgeStyle;rounded=0;orthogonalLoop=1;jettySize=auto;html=1;entryX=0;entryY=0.5;entryDx=0;entryDy=0;strokeWidth=3;endArrow=none;startFill=0;" edge="1" parent="1" source="BB0dW1mJOba3t8yH9grJ-63" target="BB0dW1mJOba3t8yH9grJ-84">
          <mxGeometry relative="1" as="geometry">
            <Array as="points">
              <mxPoint x="-1760" y="1894" />
              <mxPoint x="-1760" y="2040" />
            </Array>
          </mxGeometry>
        </mxCell>
        <mxCell id="BB0dW1mJOba3t8yH9grJ-63" value="CLK1" style="text;html=1;align=center;verticalAlign=middle;resizable=0;points=[];autosize=1;strokeColor=none;fillColor=none;strokeWidth=3;fontSize=20;container=0;" vertex="1" parent="1">
          <mxGeometry x="-1699" y="1874" width="70" height="40" as="geometry" />
        </mxCell>
        <mxCell id="BB0dW1mJOba3t8yH9grJ-79" value="" style="edgeStyle=orthogonalEdgeStyle;rounded=0;orthogonalLoop=1;jettySize=auto;html=1;strokeWidth=3;endArrow=none;startFill=0;" edge="1" parent="1" source="BB0dW1mJOba3t8yH9grJ-64" target="BB0dW1mJOba3t8yH9grJ-78">
          <mxGeometry relative="1" as="geometry" />
        </mxCell>
        <mxCell id="BB0dW1mJOba3t8yH9grJ-64" value="Q1" style="text;html=1;align=center;verticalAlign=middle;resizable=0;points=[];autosize=1;strokeColor=none;fillColor=none;strokeWidth=3;fontSize=20;container=0;" vertex="1" parent="1">
          <mxGeometry x="-1629" y="1786" width="50" height="40" as="geometry" />
        </mxCell>
        <mxCell id="BB0dW1mJOba3t8yH9grJ-65" style="rounded=0;orthogonalLoop=1;jettySize=auto;html=1;entryX=-0.003;entryY=0.217;entryDx=0;entryDy=0;entryPerimeter=0;strokeWidth=3;endArrow=none;startFill=0;" edge="1" parent="1">
          <mxGeometry relative="1" as="geometry">
            <mxPoint x="-902" y="1805" as="sourcePoint" />
            <mxPoint x="-737" y="1805" as="targetPoint" />
          </mxGeometry>
        </mxCell>
        <mxCell id="BB0dW1mJOba3t8yH9grJ-66" value="FF2" style="rounded=0;whiteSpace=wrap;html=1;strokeWidth=3;fontSize=20;fillColor=#d5e8d4;strokeColor=#82b366;container=0;" vertex="1" parent="1">
          <mxGeometry x="-1022" y="1770" width="120" height="160" as="geometry" />
        </mxCell>
        <mxCell id="BB0dW1mJOba3t8yH9grJ-83" value="" style="edgeStyle=orthogonalEdgeStyle;rounded=0;orthogonalLoop=1;jettySize=auto;html=1;endArrow=none;startFill=0;strokeWidth=3;" edge="1" parent="1" source="BB0dW1mJOba3t8yH9grJ-71" target="BB0dW1mJOba3t8yH9grJ-78">
          <mxGeometry relative="1" as="geometry" />
        </mxCell>
        <mxCell id="BB0dW1mJOba3t8yH9grJ-71" value="D2" style="text;html=1;align=center;verticalAlign=middle;resizable=0;points=[];autosize=1;strokeColor=none;fillColor=none;strokeWidth=3;fontSize=20;container=0;" vertex="1" parent="1">
          <mxGeometry x="-1022" y="1786" width="50" height="40" as="geometry" />
        </mxCell>
        <mxCell id="BB0dW1mJOba3t8yH9grJ-72" value="CLK2" style="text;html=1;align=center;verticalAlign=middle;resizable=0;points=[];autosize=1;strokeColor=none;fillColor=none;strokeWidth=3;fontSize=20;container=0;" vertex="1" parent="1">
          <mxGeometry x="-1022" y="1874" width="70" height="40" as="geometry" />
        </mxCell>
        <mxCell id="BB0dW1mJOba3t8yH9grJ-73" value="Q2" style="text;html=1;align=center;verticalAlign=middle;resizable=0;points=[];autosize=1;strokeColor=none;fillColor=none;strokeWidth=3;fontSize=20;container=0;" vertex="1" parent="1">
          <mxGeometry x="-947" y="1786" width="50" height="40" as="geometry" />
        </mxCell>
        <mxCell id="BB0dW1mJOba3t8yH9grJ-78" value="Combo Logic" style="whiteSpace=wrap;html=1;shape=mxgraph.basic.cloud_rect;strokeWidth=3;fontSize=20;fillColor=#f8cecc;strokeColor=#b85450;" vertex="1" parent="1">
          <mxGeometry x="-1399" y="1760" width="149" height="91" as="geometry" />
        </mxCell>
        <mxCell id="BB0dW1mJOba3t8yH9grJ-84" value="0.3ns" style="verticalLabelPosition=bottom;shadow=0;dashed=0;align=center;html=1;verticalAlign=top;shape=mxgraph.electrical.logic_gates.buffer2;strokeWidth=3;fontSize=20;fillColor=#f8cecc;strokeColor=#b85450;" vertex="1" parent="1">
          <mxGeometry x="-1480" y="1985" width="140" height="110" as="geometry" />
        </mxCell>
        <mxCell id="BB0dW1mJOba3t8yH9grJ-88" value="" style="endArrow=none;html=1;rounded=0;exitX=0;exitY=0.266;exitDx=0;exitDy=0;exitPerimeter=0;strokeWidth=3;" edge="1" parent="1">
          <mxGeometry width="50" height="50" relative="1" as="geometry">
            <mxPoint x="-1821" y="1893.77" as="sourcePoint" />
            <mxPoint x="-1701" y="1894.17" as="targetPoint" />
          </mxGeometry>
        </mxCell>
        <mxCell id="BB0dW1mJOba3t8yH9grJ-90" style="edgeStyle=orthogonalEdgeStyle;rounded=0;orthogonalLoop=1;jettySize=auto;html=1;exitX=1;exitY=0.5;exitDx=0;exitDy=0;entryX=0.004;entryY=0.502;entryDx=0;entryDy=0;entryPerimeter=0;strokeWidth=3;endArrow=none;startFill=0;" edge="1" parent="1" source="BB0dW1mJOba3t8yH9grJ-84" target="BB0dW1mJOba3t8yH9grJ-72">
          <mxGeometry relative="1" as="geometry" />
        </mxCell>
        <mxCell id="BB0dW1mJOba3t8yH9grJ-91" value="out1" style="text;html=1;align=center;verticalAlign=middle;resizable=0;points=[];autosize=1;strokeColor=none;fillColor=none;strokeWidth=3;fontSize=20;fontStyle=1;container=0;" vertex="1" parent="1">
          <mxGeometry x="-743" y="1784" width="60" height="40" as="geometry" />
        </mxCell>
        <mxCell id="BB0dW1mJOba3t8yH9grJ-92" value="FF1" style="rounded=0;whiteSpace=wrap;html=1;strokeWidth=3;fontSize=20;fillColor=#d5e8d4;strokeColor=#82b366;container=0;" vertex="1" parent="1">
          <mxGeometry x="-1706" y="1290" width="120" height="160" as="geometry" />
        </mxCell>
        <mxCell id="BB0dW1mJOba3t8yH9grJ-93" value="" style="endArrow=none;html=1;rounded=0;exitX=0;exitY=0.266;exitDx=0;exitDy=0;exitPerimeter=0;strokeWidth=3;" edge="1" parent="1">
          <mxGeometry width="50" height="50" relative="1" as="geometry">
            <mxPoint x="-1826" y="1325.6" as="sourcePoint" />
            <mxPoint x="-1706" y="1326" as="targetPoint" />
          </mxGeometry>
        </mxCell>
        <mxCell id="BB0dW1mJOba3t8yH9grJ-94" value="in1" style="text;html=1;align=center;verticalAlign=middle;resizable=0;points=[];autosize=1;strokeColor=none;fillColor=none;strokeWidth=3;fontSize=20;fontStyle=1;container=0;" vertex="1" parent="1">
          <mxGeometry x="-1873" y="1307" width="45" height="36" as="geometry" />
        </mxCell>
        <mxCell id="BB0dW1mJOba3t8yH9grJ-95" value="clk" style="text;html=1;align=center;verticalAlign=middle;resizable=0;points=[];autosize=1;strokeColor=none;fillColor=none;strokeWidth=4;fontSize=20;fontStyle=1;container=0;" vertex="1" parent="1">
          <mxGeometry x="-1880" y="1392" width="50" height="40" as="geometry" />
        </mxCell>
        <mxCell id="BB0dW1mJOba3t8yH9grJ-96" value="D1" style="text;html=1;align=center;verticalAlign=middle;resizable=0;points=[];autosize=1;strokeColor=none;fillColor=none;strokeWidth=3;fontSize=20;container=0;" vertex="1" parent="1">
          <mxGeometry x="-1711" y="1306" width="50" height="40" as="geometry" />
        </mxCell>
        <mxCell id="BB0dW1mJOba3t8yH9grJ-97" style="edgeStyle=orthogonalEdgeStyle;rounded=0;orthogonalLoop=1;jettySize=auto;html=1;strokeWidth=3;endArrow=none;startFill=0;" edge="1" parent="1">
          <mxGeometry relative="1" as="geometry">
            <Array as="points">
              <mxPoint x="-1760" y="1414" />
              <mxPoint x="-1760" y="1560" />
              <mxPoint x="-1180" y="1560" />
              <mxPoint x="-1180" y="1414" />
            </Array>
            <mxPoint x="-1695" y="1414" as="sourcePoint" />
            <mxPoint x="-1029" y="1414" as="targetPoint" />
          </mxGeometry>
        </mxCell>
        <mxCell id="BB0dW1mJOba3t8yH9grJ-98" value="CLK1" style="text;html=1;align=center;verticalAlign=middle;resizable=0;points=[];autosize=1;strokeColor=none;fillColor=none;strokeWidth=3;fontSize=20;container=0;" vertex="1" parent="1">
          <mxGeometry x="-1706" y="1394" width="70" height="40" as="geometry" />
        </mxCell>
        <mxCell id="BB0dW1mJOba3t8yH9grJ-99" value="" style="edgeStyle=orthogonalEdgeStyle;rounded=0;orthogonalLoop=1;jettySize=auto;html=1;strokeWidth=3;endArrow=none;startFill=0;" edge="1" parent="1" source="BB0dW1mJOba3t8yH9grJ-100" target="BB0dW1mJOba3t8yH9grJ-107">
          <mxGeometry relative="1" as="geometry" />
        </mxCell>
        <mxCell id="BB0dW1mJOba3t8yH9grJ-100" value="Q1" style="text;html=1;align=center;verticalAlign=middle;resizable=0;points=[];autosize=1;strokeColor=none;fillColor=none;strokeWidth=3;fontSize=20;container=0;" vertex="1" parent="1">
          <mxGeometry x="-1636" y="1306" width="50" height="40" as="geometry" />
        </mxCell>
        <mxCell id="BB0dW1mJOba3t8yH9grJ-101" style="rounded=0;orthogonalLoop=1;jettySize=auto;html=1;entryX=-0.003;entryY=0.217;entryDx=0;entryDy=0;entryPerimeter=0;strokeWidth=3;endArrow=none;startFill=0;" edge="1" parent="1">
          <mxGeometry relative="1" as="geometry">
            <mxPoint x="-909" y="1325" as="sourcePoint" />
            <mxPoint x="-744" y="1325" as="targetPoint" />
          </mxGeometry>
        </mxCell>
        <mxCell id="BB0dW1mJOba3t8yH9grJ-102" value="FF2" style="rounded=0;whiteSpace=wrap;html=1;strokeWidth=3;fontSize=20;fillColor=#d5e8d4;strokeColor=#82b366;container=0;" vertex="1" parent="1">
          <mxGeometry x="-1029" y="1290" width="120" height="160" as="geometry" />
        </mxCell>
        <mxCell id="BB0dW1mJOba3t8yH9grJ-103" value="" style="edgeStyle=orthogonalEdgeStyle;rounded=0;orthogonalLoop=1;jettySize=auto;html=1;endArrow=none;startFill=0;strokeWidth=3;" edge="1" parent="1" source="BB0dW1mJOba3t8yH9grJ-104" target="BB0dW1mJOba3t8yH9grJ-107">
          <mxGeometry relative="1" as="geometry" />
        </mxCell>
        <mxCell id="BB0dW1mJOba3t8yH9grJ-104" value="D2" style="text;html=1;align=center;verticalAlign=middle;resizable=0;points=[];autosize=1;strokeColor=none;fillColor=none;strokeWidth=3;fontSize=20;container=0;" vertex="1" parent="1">
          <mxGeometry x="-1029" y="1306" width="50" height="40" as="geometry" />
        </mxCell>
        <mxCell id="BB0dW1mJOba3t8yH9grJ-105" value="CLK2" style="text;html=1;align=center;verticalAlign=middle;resizable=0;points=[];autosize=1;strokeColor=none;fillColor=none;strokeWidth=3;fontSize=20;container=0;" vertex="1" parent="1">
          <mxGeometry x="-1029" y="1394" width="70" height="40" as="geometry" />
        </mxCell>
        <mxCell id="BB0dW1mJOba3t8yH9grJ-106" value="Q2" style="text;html=1;align=center;verticalAlign=middle;resizable=0;points=[];autosize=1;strokeColor=none;fillColor=none;strokeWidth=3;fontSize=20;container=0;" vertex="1" parent="1">
          <mxGeometry x="-954" y="1306" width="50" height="40" as="geometry" />
        </mxCell>
        <mxCell id="BB0dW1mJOba3t8yH9grJ-107" value="Combo Logic" style="whiteSpace=wrap;html=1;shape=mxgraph.basic.cloud_rect;strokeWidth=3;fontSize=20;fillColor=#f8cecc;strokeColor=#b85450;" vertex="1" parent="1">
          <mxGeometry x="-1406" y="1280" width="149" height="91" as="geometry" />
        </mxCell>
        <mxCell id="BB0dW1mJOba3t8yH9grJ-109" value="" style="endArrow=none;html=1;rounded=0;exitX=0;exitY=0.266;exitDx=0;exitDy=0;exitPerimeter=0;strokeWidth=3;" edge="1" parent="1">
          <mxGeometry width="50" height="50" relative="1" as="geometry">
            <mxPoint x="-1828" y="1413.77" as="sourcePoint" />
            <mxPoint x="-1708" y="1414.17" as="targetPoint" />
          </mxGeometry>
        </mxCell>
        <mxCell id="BB0dW1mJOba3t8yH9grJ-111" value="out1" style="text;html=1;align=center;verticalAlign=middle;resizable=0;points=[];autosize=1;strokeColor=none;fillColor=none;strokeWidth=3;fontSize=20;fontStyle=1;container=0;" vertex="1" parent="1">
          <mxGeometry x="-750" y="1304" width="60" height="40" as="geometry" />
        </mxCell>
        <mxCell id="BB0dW1mJOba3t8yH9grJ-112" style="rounded=0;orthogonalLoop=1;jettySize=auto;html=1;entryX=-0.003;entryY=0.217;entryDx=0;entryDy=0;entryPerimeter=0;strokeWidth=3;endArrow=none;startFill=0;" edge="1" parent="1">
          <mxGeometry relative="1" as="geometry">
            <mxPoint x="-902" y="2355" as="sourcePoint" />
            <mxPoint x="-737" y="2355" as="targetPoint" />
          </mxGeometry>
        </mxCell>
        <mxCell id="BB0dW1mJOba3t8yH9grJ-113" value="FF2" style="rounded=0;whiteSpace=wrap;html=1;strokeWidth=3;fontSize=20;fillColor=#d5e8d4;strokeColor=#82b366;container=0;" vertex="1" parent="1">
          <mxGeometry x="-1022" y="2320" width="120" height="160" as="geometry" />
        </mxCell>
        <mxCell id="BB0dW1mJOba3t8yH9grJ-114" value="D2" style="text;html=1;align=center;verticalAlign=middle;resizable=0;points=[];autosize=1;strokeColor=none;fillColor=none;strokeWidth=3;fontSize=20;container=0;" vertex="1" parent="1">
          <mxGeometry x="-1022" y="2336" width="50" height="40" as="geometry" />
        </mxCell>
        <mxCell id="BB0dW1mJOba3t8yH9grJ-137" value="" style="edgeStyle=orthogonalEdgeStyle;rounded=0;orthogonalLoop=1;jettySize=auto;html=1;strokeWidth=3;endArrow=none;startFill=0;" edge="1" parent="1" source="BB0dW1mJOba3t8yH9grJ-115">
          <mxGeometry relative="1" as="geometry">
            <mxPoint x="-1160" y="2600" as="targetPoint" />
          </mxGeometry>
        </mxCell>
        <mxCell id="BB0dW1mJOba3t8yH9grJ-115" value="CLK2" style="text;html=1;align=center;verticalAlign=middle;resizable=0;points=[];autosize=1;strokeColor=none;fillColor=none;strokeWidth=3;fontSize=20;container=0;" vertex="1" parent="1">
          <mxGeometry x="-1022" y="2424" width="70" height="40" as="geometry" />
        </mxCell>
        <mxCell id="BB0dW1mJOba3t8yH9grJ-116" value="Q2" style="text;html=1;align=center;verticalAlign=middle;resizable=0;points=[];autosize=1;strokeColor=none;fillColor=none;strokeWidth=3;fontSize=20;container=0;" vertex="1" parent="1">
          <mxGeometry x="-947" y="2336" width="50" height="40" as="geometry" />
        </mxCell>
        <mxCell id="BB0dW1mJOba3t8yH9grJ-117" value="out1" style="text;html=1;align=center;verticalAlign=middle;resizable=0;points=[];autosize=1;strokeColor=none;fillColor=none;strokeWidth=3;fontSize=20;fontStyle=1;container=0;" vertex="1" parent="1">
          <mxGeometry x="-743" y="2334" width="60" height="40" as="geometry" />
        </mxCell>
        <mxCell id="BB0dW1mJOba3t8yH9grJ-123" value="" style="rounded=0;orthogonalLoop=1;jettySize=auto;html=1;entryX=0;entryY=0.25;entryDx=0;entryDy=0;entryPerimeter=0;strokeWidth=3;endArrow=none;startFill=0;edgeStyle=orthogonalEdgeStyle;" edge="1" parent="1" source="BB0dW1mJOba3t8yH9grJ-118" target="BB0dW1mJOba3t8yH9grJ-120">
          <mxGeometry relative="1" as="geometry" />
        </mxCell>
        <mxCell id="BB0dW1mJOba3t8yH9grJ-118" value="&lt;font style=&quot;font-size: 20px;&quot;&gt;1ns&lt;/font&gt;" style="verticalLabelPosition=bottom;shadow=0;dashed=0;align=center;html=1;verticalAlign=top;shape=mxgraph.electrical.logic_gates.buffer2;strokeWidth=3;" vertex="1" parent="1">
          <mxGeometry x="-1739" y="2180" width="153" height="120" as="geometry" />
        </mxCell>
        <mxCell id="BB0dW1mJOba3t8yH9grJ-122" value="" style="rounded=0;orthogonalLoop=1;jettySize=auto;html=1;strokeWidth=3;endArrow=none;startFill=0;" edge="1" parent="1" source="BB0dW1mJOba3t8yH9grJ-120" target="BB0dW1mJOba3t8yH9grJ-114">
          <mxGeometry relative="1" as="geometry" />
        </mxCell>
        <mxCell id="BB0dW1mJOba3t8yH9grJ-120" value="&lt;font style=&quot;font-size: 20px;&quot;&gt;3ns&lt;/font&gt;" style="verticalLabelPosition=bottom;shadow=0;dashed=0;align=center;html=1;verticalAlign=top;shape=mxgraph.electrical.logic_gates.logic_gate;operation=and;strokeWidth=3;" vertex="1" parent="1">
          <mxGeometry x="-1380" y="2303" width="166" height="106" as="geometry" />
        </mxCell>
        <mxCell id="BB0dW1mJOba3t8yH9grJ-121" value="&lt;font style=&quot;font-size: 20px;&quot;&gt;5ns&lt;/font&gt;" style="verticalLabelPosition=bottom;shadow=0;dashed=0;align=center;html=1;verticalAlign=top;shape=mxgraph.electrical.logic_gates.logic_gate;operation=and;strokeWidth=3;" vertex="1" parent="1">
          <mxGeometry x="-1754" y="2430" width="166" height="106" as="geometry" />
        </mxCell>
        <mxCell id="BB0dW1mJOba3t8yH9grJ-124" style="edgeStyle=orthogonalEdgeStyle;rounded=0;orthogonalLoop=1;jettySize=auto;html=1;exitX=0;exitY=0.75;exitDx=0;exitDy=0;exitPerimeter=0;entryX=1;entryY=0.5;entryDx=0;entryDy=0;entryPerimeter=0;strokeWidth=3;endArrow=none;startFill=0;" edge="1" parent="1" source="BB0dW1mJOba3t8yH9grJ-120" target="BB0dW1mJOba3t8yH9grJ-121">
          <mxGeometry relative="1" as="geometry" />
        </mxCell>
        <mxCell id="BB0dW1mJOba3t8yH9grJ-125" value="&lt;font style=&quot;font-size: 20px;&quot;&gt;0ns&lt;/font&gt;" style="text;html=1;align=center;verticalAlign=middle;resizable=0;points=[];autosize=1;strokeColor=none;fillColor=none;" vertex="1" parent="1">
          <mxGeometry x="-1799" y="2220" width="60" height="40" as="geometry" />
        </mxCell>
        <mxCell id="BB0dW1mJOba3t8yH9grJ-126" value="&lt;font style=&quot;font-size: 20px;&quot;&gt;0ns&lt;/font&gt;" style="text;html=1;align=center;verticalAlign=middle;resizable=0;points=[];autosize=1;strokeColor=none;fillColor=none;" vertex="1" parent="1">
          <mxGeometry x="-1814" y="2430" width="60" height="40" as="geometry" />
        </mxCell>
        <mxCell id="BB0dW1mJOba3t8yH9grJ-127" value="&lt;font style=&quot;font-size: 20px;&quot;&gt;0ns&lt;/font&gt;" style="text;html=1;align=center;verticalAlign=middle;resizable=0;points=[];autosize=1;strokeColor=none;fillColor=none;" vertex="1" parent="1">
          <mxGeometry x="-1814" y="2490" width="60" height="40" as="geometry" />
        </mxCell>
        <mxCell id="BB0dW1mJOba3t8yH9grJ-134" value="&lt;font style=&quot;font-size: 20px;&quot;&gt;4ns&lt;/font&gt;" style="text;html=1;align=center;verticalAlign=middle;resizable=0;points=[];autosize=1;strokeColor=none;fillColor=none;" vertex="1" parent="1">
          <mxGeometry x="-1120" y="2310" width="60" height="40" as="geometry" />
        </mxCell>
        <mxCell id="BB0dW1mJOba3t8yH9grJ-135" value="&lt;font style=&quot;font-size: 20px;&quot;&gt;8ns&lt;/font&gt;" style="text;html=1;align=center;verticalAlign=middle;resizable=0;points=[];autosize=1;strokeColor=none;fillColor=none;" vertex="1" parent="1">
          <mxGeometry x="-1120" y="2360" width="60" height="40" as="geometry" />
        </mxCell>
        <mxCell id="BB0dW1mJOba3t8yH9grJ-138" value="&lt;font style=&quot;font-size: 20px;&quot;&gt;5ns&lt;/font&gt;" style="text;html=1;align=center;verticalAlign=middle;resizable=0;points=[];autosize=1;strokeColor=none;fillColor=none;" vertex="1" parent="1">
          <mxGeometry x="-1190" y="2600" width="60" height="40" as="geometry" />
        </mxCell>
        <mxCell id="BB0dW1mJOba3t8yH9grJ-139" value="FF1" style="rounded=0;whiteSpace=wrap;html=1;strokeWidth=5;fontSize=20;fillColor=#d5e8d4;strokeColor=#82b366;container=0;" vertex="1" parent="1">
          <mxGeometry x="-1669" y="2770" width="120" height="160" as="geometry" />
        </mxCell>
        <mxCell id="BB0dW1mJOba3t8yH9grJ-140" value="" style="endArrow=none;html=1;rounded=0;strokeWidth=5;entryX=-0.001;entryY=0.487;entryDx=0;entryDy=0;entryPerimeter=0;" edge="1" parent="1" target="BB0dW1mJOba3t8yH9grJ-159">
          <mxGeometry width="50" height="50" relative="1" as="geometry">
            <mxPoint x="-2400" y="2805" as="sourcePoint" />
            <mxPoint x="-2160" y="2806" as="targetPoint" />
          </mxGeometry>
        </mxCell>
        <mxCell id="BB0dW1mJOba3t8yH9grJ-141" value="in1" style="text;html=1;align=center;verticalAlign=middle;resizable=0;points=[];autosize=1;strokeColor=none;fillColor=none;strokeWidth=5;fontSize=20;fontStyle=1;container=0;" vertex="1" parent="1">
          <mxGeometry x="-2455" y="2786" width="45" height="36" as="geometry" />
        </mxCell>
        <mxCell id="BB0dW1mJOba3t8yH9grJ-143" value="D1" style="text;html=1;align=center;verticalAlign=middle;resizable=0;points=[];autosize=1;strokeColor=none;fillColor=none;strokeWidth=5;fontSize=20;container=0;" vertex="1" parent="1">
          <mxGeometry x="-1669" y="2786" width="50" height="40" as="geometry" />
        </mxCell>
        <mxCell id="BB0dW1mJOba3t8yH9grJ-145" value="CLK1" style="text;html=1;align=center;verticalAlign=middle;resizable=0;points=[];autosize=1;strokeColor=none;fillColor=none;strokeWidth=5;fontSize=20;container=0;" vertex="1" parent="1">
          <mxGeometry x="-1669" y="2874" width="70" height="40" as="geometry" />
        </mxCell>
        <mxCell id="BB0dW1mJOba3t8yH9grJ-146" value="" style="rounded=0;orthogonalLoop=1;jettySize=auto;html=1;strokeWidth=5;endArrow=none;startFill=0;" edge="1" parent="1" source="BB0dW1mJOba3t8yH9grJ-147" target="BB0dW1mJOba3t8yH9grJ-154">
          <mxGeometry relative="1" as="geometry" />
        </mxCell>
        <mxCell id="BB0dW1mJOba3t8yH9grJ-147" value="Q1" style="text;html=1;align=center;verticalAlign=middle;resizable=0;points=[];autosize=1;strokeColor=none;fillColor=none;strokeWidth=5;fontSize=20;container=0;" vertex="1" parent="1">
          <mxGeometry x="-1599" y="2786" width="50" height="40" as="geometry" />
        </mxCell>
        <mxCell id="BB0dW1mJOba3t8yH9grJ-149" value="FF2" style="rounded=0;whiteSpace=wrap;html=1;strokeWidth=5;fontSize=20;fillColor=#d5e8d4;strokeColor=#82b366;container=0;" vertex="1" parent="1">
          <mxGeometry x="-992" y="2770" width="120" height="160" as="geometry" />
        </mxCell>
        <mxCell id="BB0dW1mJOba3t8yH9grJ-150" value="" style="rounded=0;orthogonalLoop=1;jettySize=auto;html=1;endArrow=none;startFill=0;strokeWidth=5;" edge="1" parent="1" source="BB0dW1mJOba3t8yH9grJ-151" target="BB0dW1mJOba3t8yH9grJ-154">
          <mxGeometry relative="1" as="geometry" />
        </mxCell>
        <mxCell id="BB0dW1mJOba3t8yH9grJ-151" value="D2" style="text;html=1;align=center;verticalAlign=middle;resizable=0;points=[];autosize=1;strokeColor=none;fillColor=none;strokeWidth=5;fontSize=20;container=0;" vertex="1" parent="1">
          <mxGeometry x="-992" y="2786" width="50" height="40" as="geometry" />
        </mxCell>
        <mxCell id="BB0dW1mJOba3t8yH9grJ-152" value="CLK2" style="text;html=1;align=center;verticalAlign=middle;resizable=0;points=[];autosize=1;strokeColor=none;fillColor=none;strokeWidth=5;fontSize=20;container=0;" vertex="1" parent="1">
          <mxGeometry x="-992" y="2874" width="70" height="40" as="geometry" />
        </mxCell>
        <mxCell id="BB0dW1mJOba3t8yH9grJ-153" value="Q2" style="text;html=1;align=center;verticalAlign=middle;resizable=0;points=[];autosize=1;strokeColor=none;fillColor=none;strokeWidth=5;fontSize=20;container=0;" vertex="1" parent="1">
          <mxGeometry x="-917" y="2786" width="50" height="40" as="geometry" />
        </mxCell>
        <mxCell id="BB0dW1mJOba3t8yH9grJ-154" value="Combo Logic" style="whiteSpace=wrap;html=1;shape=mxgraph.basic.cloud_rect;strokeWidth=5;fontSize=20;fillColor=#f5f5f5;strokeColor=#666666;gradientColor=#b3b3b3;" vertex="1" parent="1">
          <mxGeometry x="-1369" y="2760" width="149" height="91" as="geometry" />
        </mxCell>
        <mxCell id="BB0dW1mJOba3t8yH9grJ-156" value="" style="endArrow=none;html=1;rounded=0;strokeWidth=5;startArrow=box;startFill=0;" edge="1" parent="1">
          <mxGeometry width="50" height="50" relative="1" as="geometry">
            <mxPoint x="-2325.5" y="3085.6" as="sourcePoint" />
            <mxPoint x="-2091.5" y="3085.6" as="targetPoint" />
          </mxGeometry>
        </mxCell>
        <mxCell id="BB0dW1mJOba3t8yH9grJ-158" value="out1" style="text;html=1;align=center;verticalAlign=middle;resizable=0;points=[];autosize=1;strokeColor=none;fillColor=none;strokeWidth=5;fontSize=20;fontStyle=1;container=0;" vertex="1" parent="1">
          <mxGeometry x="-260" y="2785" width="60" height="40" as="geometry" />
        </mxCell>
        <mxCell id="BB0dW1mJOba3t8yH9grJ-160" value="" style="edgeStyle=orthogonalEdgeStyle;rounded=0;orthogonalLoop=1;jettySize=auto;html=1;strokeWidth=5;endArrow=none;startFill=0;" edge="1" parent="1" source="BB0dW1mJOba3t8yH9grJ-159" target="BB0dW1mJOba3t8yH9grJ-143">
          <mxGeometry relative="1" as="geometry" />
        </mxCell>
        <mxCell id="BB0dW1mJOba3t8yH9grJ-159" value="Combo Logic" style="whiteSpace=wrap;html=1;shape=mxgraph.basic.cloud_rect;strokeWidth=5;fontSize=20;fillColor=#f5f5f5;strokeColor=#666666;gradientColor=#b3b3b3;" vertex="1" parent="1">
          <mxGeometry x="-2154.5" y="2760.5" width="149" height="91" as="geometry" />
        </mxCell>
        <mxCell id="BB0dW1mJOba3t8yH9grJ-161" value="" style="rounded=0;orthogonalLoop=1;jettySize=auto;html=1;endArrow=none;startFill=0;strokeWidth=5;" edge="1" parent="1" target="BB0dW1mJOba3t8yH9grJ-162">
          <mxGeometry relative="1" as="geometry">
            <mxPoint x="-266" y="2806.5" as="sourcePoint" />
          </mxGeometry>
        </mxCell>
        <mxCell id="BB0dW1mJOba3t8yH9grJ-162" value="Combo Logic" style="whiteSpace=wrap;html=1;shape=mxgraph.basic.cloud_rect;strokeWidth=5;fontSize=20;fillColor=#f5f5f5;strokeColor=#666666;gradientColor=#b3b3b3;" vertex="1" parent="1">
          <mxGeometry x="-643" y="2760.5" width="149" height="91" as="geometry" />
        </mxCell>
        <mxCell id="BB0dW1mJOba3t8yH9grJ-163" value="" style="rounded=0;orthogonalLoop=1;jettySize=auto;html=1;endArrow=none;startFill=0;strokeWidth=5;" edge="1" parent="1">
          <mxGeometry relative="1" as="geometry">
            <mxPoint x="-644" y="2805.57" as="sourcePoint" />
            <mxPoint x="-872" y="2805.57" as="targetPoint" />
          </mxGeometry>
        </mxCell>
        <mxCell id="BB0dW1mJOba3t8yH9grJ-165" value="" style="edgeStyle=orthogonalEdgeStyle;rounded=0;orthogonalLoop=1;jettySize=auto;html=1;strokeWidth=5;endArrow=none;startFill=0;" edge="1" parent="1" source="BB0dW1mJOba3t8yH9grJ-164" target="BB0dW1mJOba3t8yH9grJ-145">
          <mxGeometry relative="1" as="geometry" />
        </mxCell>
        <mxCell id="BB0dW1mJOba3t8yH9grJ-164" value="0.3ns" style="verticalLabelPosition=bottom;shadow=0;dashed=0;align=center;html=1;verticalAlign=top;shape=mxgraph.electrical.logic_gates.buffer2;strokeWidth=5;fontSize=20;fillColor=#ffcd28;strokeColor=#d79b00;gradientColor=#ffa500;" vertex="1" parent="1">
          <mxGeometry x="-1785" y="2868.25" width="86" height="51.5" as="geometry" />
        </mxCell>
        <mxCell id="BB0dW1mJOba3t8yH9grJ-168" value="" style="edgeStyle=orthogonalEdgeStyle;rounded=0;orthogonalLoop=1;jettySize=auto;html=1;endArrow=none;startFill=0;strokeWidth=5;" edge="1" parent="1" source="BB0dW1mJOba3t8yH9grJ-167" target="BB0dW1mJOba3t8yH9grJ-152">
          <mxGeometry relative="1" as="geometry">
            <Array as="points">
              <mxPoint x="-1120" y="3086" />
              <mxPoint x="-1120" y="2894" />
            </Array>
          </mxGeometry>
        </mxCell>
        <mxCell id="BB0dW1mJOba3t8yH9grJ-173" style="edgeStyle=orthogonalEdgeStyle;rounded=0;orthogonalLoop=1;jettySize=auto;html=1;endArrow=none;startFill=0;strokeWidth=5;" edge="1" parent="1" source="BB0dW1mJOba3t8yH9grJ-167">
          <mxGeometry relative="1" as="geometry">
            <mxPoint x="-1880" y="3085.75" as="targetPoint" />
          </mxGeometry>
        </mxCell>
        <mxCell id="BB0dW1mJOba3t8yH9grJ-167" value="0.3ns" style="verticalLabelPosition=bottom;shadow=0;dashed=0;align=center;html=1;verticalAlign=top;shape=mxgraph.electrical.logic_gates.buffer2;strokeWidth=5;fontSize=20;fillColor=#ffcd28;strokeColor=#d79b00;gradientColor=#ffa500;" vertex="1" parent="1">
          <mxGeometry x="-1492" y="3060" width="86" height="51.5" as="geometry" />
        </mxCell>
        <mxCell id="BB0dW1mJOba3t8yH9grJ-172" value="" style="edgeStyle=orthogonalEdgeStyle;rounded=0;orthogonalLoop=1;jettySize=auto;html=1;strokeWidth=5;endArrow=none;startFill=0;" edge="1" parent="1" source="BB0dW1mJOba3t8yH9grJ-169" target="BB0dW1mJOba3t8yH9grJ-164">
          <mxGeometry relative="1" as="geometry">
            <Array as="points">
              <mxPoint x="-1880" y="3086" />
              <mxPoint x="-1880" y="2894" />
            </Array>
          </mxGeometry>
        </mxCell>
        <mxCell id="BB0dW1mJOba3t8yH9grJ-169" value="0.3ns" style="verticalLabelPosition=bottom;shadow=0;dashed=0;align=center;html=1;verticalAlign=top;shape=mxgraph.electrical.logic_gates.buffer2;strokeWidth=5;fontSize=20;fillColor=#ffcd28;strokeColor=#d79b00;gradientColor=#ffa500;" vertex="1" parent="1">
          <mxGeometry x="-2091.5" y="3060" width="86" height="51.5" as="geometry" />
        </mxCell>
        <mxCell id="BB0dW1mJOba3t8yH9grJ-176" value="" style="edgeStyle=orthogonalEdgeStyle;rounded=0;orthogonalLoop=1;jettySize=auto;html=1;strokeWidth=5;endArrow=none;startFill=0;exitX=1;exitY=0.5;exitDx=0;exitDy=0;" edge="1" parent="1" source="BB0dW1mJOba3t8yH9grJ-175">
          <mxGeometry relative="1" as="geometry">
            <mxPoint x="-2414" y="3086" as="sourcePoint" />
            <mxPoint x="-2324" y="3086" as="targetPoint" />
          </mxGeometry>
        </mxCell>
        <mxCell id="BB0dW1mJOba3t8yH9grJ-175" value="&lt;font style=&quot;font-size: 20px;&quot;&gt;Oscillator&lt;/font&gt;" style="rounded=0;whiteSpace=wrap;html=1;strokeWidth=5;fillColor=#f8cecc;strokeColor=#b85450;gradientColor=#ea6b66;" vertex="1" parent="1">
          <mxGeometry x="-2730" y="3056" width="230" height="60" as="geometry" />
        </mxCell>
        <mxCell id="BB0dW1mJOba3t8yH9grJ-177" value="Source Latency" style="text;html=1;align=center;verticalAlign=middle;resizable=0;points=[];autosize=1;strokeColor=none;fillColor=none;strokeWidth=5;fontSize=20;fontStyle=1;container=0;fontColor=#FF3333;" vertex="1" parent="1">
          <mxGeometry x="-2490" y="3090" width="160" height="40" as="geometry" />
        </mxCell>
        <mxCell id="BB0dW1mJOba3t8yH9grJ-180" value="" style="endArrow=none;dashed=1;html=1;dashPattern=1 3;strokeWidth=5;rounded=0;entryX=0.024;entryY=0.582;entryDx=0;entryDy=0;entryPerimeter=0;edgeStyle=orthogonalEdgeStyle;curved=1;strokeColor=#0000CC;" edge="1" parent="1" target="BB0dW1mJOba3t8yH9grJ-145">
          <mxGeometry width="50" height="50" relative="1" as="geometry">
            <mxPoint x="-2310" y="3080" as="sourcePoint" />
            <mxPoint x="-1880" y="2890" as="targetPoint" />
            <Array as="points">
              <mxPoint x="-2310" y="3070" />
              <mxPoint x="-1930" y="3070" />
              <mxPoint x="-1930" y="2870" />
              <mxPoint x="-1667" y="2870" />
            </Array>
          </mxGeometry>
        </mxCell>
        <mxCell id="BB0dW1mJOba3t8yH9grJ-181" value="Network Latency" style="text;html=1;align=center;verticalAlign=middle;resizable=0;points=[];autosize=1;strokeColor=none;fillColor=none;strokeWidth=5;fontSize=20;fontStyle=1;container=0;fontColor=#0000CC;" vertex="1" parent="1">
          <mxGeometry x="-2280" y="3020" width="170" height="40" as="geometry" />
        </mxCell>
        <mxCell id="BB0dW1mJOba3t8yH9grJ-182" value="" style="endArrow=none;dashed=1;html=1;dashPattern=1 3;strokeWidth=5;rounded=0;edgeStyle=orthogonalEdgeStyle;curved=1;entryX=0.011;entryY=0.534;entryDx=0;entryDy=0;entryPerimeter=0;strokeColor=#0000CC;" edge="1" parent="1" target="BB0dW1mJOba3t8yH9grJ-152">
          <mxGeometry width="50" height="50" relative="1" as="geometry">
            <mxPoint x="-2310" y="3090" as="sourcePoint" />
            <mxPoint x="-1000" y="2890" as="targetPoint" />
            <Array as="points">
              <mxPoint x="-2310" y="3110" />
              <mxPoint x="-1000" y="3110" />
              <mxPoint x="-1000" y="2895" />
            </Array>
          </mxGeometry>
        </mxCell>
        <mxCell id="BB0dW1mJOba3t8yH9grJ-183" value="Network Latency" style="text;html=1;align=center;verticalAlign=middle;resizable=0;points=[];autosize=1;strokeColor=none;fillColor=none;strokeWidth=5;fontSize=20;fontStyle=1;container=0;fontColor=#0000CC;" vertex="1" parent="1">
          <mxGeometry x="-1719" y="3111.5" width="170" height="40" as="geometry" />
        </mxCell>
        <mxCell id="BB0dW1mJOba3t8yH9grJ-184" value="" style="endArrow=none;dashed=1;html=1;dashPattern=1 3;strokeWidth=5;rounded=0;exitX=1;exitY=0.5;exitDx=0;exitDy=0;edgeStyle=orthogonalEdgeStyle;curved=1;strokeColor=#FF3333;" edge="1" parent="1" source="BB0dW1mJOba3t8yH9grJ-175">
          <mxGeometry width="50" height="50" relative="1" as="geometry">
            <mxPoint x="-2470" y="3170" as="sourcePoint" />
            <mxPoint x="-2320" y="3090" as="targetPoint" />
            <Array as="points">
              <mxPoint x="-2500" y="3040" />
              <mxPoint x="-2320" y="3040" />
            </Array>
          </mxGeometry>
        </mxCell>
        <mxCell id="BB0dW1mJOba3t8yH9grJ-186" value="" style="endArrow=classic;html=1;rounded=0;fillColor=#ffcccc;strokeColor=#FF00FF;strokeWidth=5;" edge="1" parent="1">
          <mxGeometry width="50" height="50" relative="1" as="geometry">
            <mxPoint x="-2320" y="3090" as="sourcePoint" />
            <mxPoint x="-2370" y="3230" as="targetPoint" />
          </mxGeometry>
        </mxCell>
        <mxCell id="BB0dW1mJOba3t8yH9grJ-187" value="Clock Definition Point" style="text;html=1;align=center;verticalAlign=middle;resizable=0;points=[];autosize=1;strokeColor=none;fillColor=none;strokeWidth=5;fontSize=20;fontStyle=1;container=0;fontColor=#FF00FF;" vertex="1" parent="1">
          <mxGeometry x="-2578" y="3230" width="210" height="40" as="geometry" />
        </mxCell>
        <mxCell id="BB0dW1mJOba3t8yH9grJ-188" value="Clock Network Delay = Clock Source Latency + Clock Network Latency" style="text;html=1;align=center;verticalAlign=middle;resizable=0;points=[];autosize=1;strokeColor=none;fillColor=none;strokeWidth=5;fontSize=50;fontStyle=1;container=0;fontColor=#33001A;" vertex="1" parent="1">
          <mxGeometry x="-2193" y="3300" width="1600" height="70" as="geometry" />
        </mxCell>
      </root>
    </mxGraphModel>
  </diagram>
</mxfile>
